<svg width="74" height="12" viewBox="0 0 74 12" fill="none" xmlns="http://www.w3.org/2000/svg">
<path d="M0 2.625H0.820312V3.76758C1.14844 3.33008 1.51172 3.00391 1.91016 2.78906C2.30859 2.57031 2.74219 2.46094 3.21094 2.46094C3.6875 2.46094 4.10938 2.58203 4.47656 2.82422C4.84766 3.06641 5.12109 3.39258 5.29688 3.80273C5.47266 4.21289 5.56055 4.85156 5.56055 5.71875V9H4.74609V5.95898C4.74609 5.22461 4.71484 4.73438 4.65234 4.48828C4.55469 4.06641 4.37109 3.75 4.10156 3.53906C3.83203 3.32422 3.48047 3.2168 3.04688 3.2168C2.55078 3.2168 2.10547 3.38086 1.71094 3.70898C1.32031 4.03711 1.0625 4.44336 0.9375 4.92773C0.859375 5.24414 0.820312 5.82227 0.820312 6.66211V9H0V2.625ZM7.61133 0C7.79883 0 7.95898 0.0664062 8.0918 0.199219C8.22461 0.332031 8.29102 0.492188 8.29102 0.679688C8.29102 0.863281 8.22461 1.02148 8.0918 1.1543C7.95898 1.28711 7.79883 1.35352 7.61133 1.35352C7.42773 1.35352 7.26953 1.28711 7.13672 1.1543C7.00391 1.02148 6.9375 0.863281 6.9375 0.679688C6.9375 0.492188 7.00391 0.332031 7.13672 0.199219C7.26953 0.0664062 7.42773 0 7.61133 0ZM7.20117 2.625H8.02734V9H7.20117V2.625ZM9.7207 2.625H10.5352V3.72656C10.8203 3.32031 11.1133 3.02344 11.4141 2.83594C11.8281 2.58594 12.2637 2.46094 12.7207 2.46094C13.0293 2.46094 13.3223 2.52148 13.5996 2.64258C13.877 2.76367 14.1035 2.92578 14.2793 3.12891C14.4551 3.32812 14.6074 3.61523 14.7363 3.99023C15.0098 3.49023 15.3516 3.11133 15.7617 2.85352C16.1719 2.5918 16.6133 2.46094 17.0859 2.46094C17.5273 2.46094 17.916 2.57227 18.252 2.79492C18.5918 3.01758 18.8438 3.32812 19.0078 3.72656C19.1719 4.125 19.2539 4.72266 19.2539 5.51953V9H18.416V5.51953C18.416 4.83594 18.3672 4.36719 18.2695 4.11328C18.1719 3.85547 18.0039 3.64844 17.7656 3.49219C17.5312 3.33594 17.25 3.25781 16.9219 3.25781C16.5234 3.25781 16.1582 3.375 15.8262 3.60938C15.498 3.84375 15.2578 4.15625 15.1055 4.54688C14.9531 4.9375 14.877 5.58984 14.877 6.50391V9H14.0625V5.73633C14.0625 4.9668 14.0137 4.44531 13.916 4.17188C13.8223 3.89453 13.6562 3.67383 13.418 3.50977C13.1797 3.3418 12.8965 3.25781 12.5684 3.25781C12.1895 3.25781 11.834 3.37305 11.502 3.60352C11.1738 3.83008 10.9297 4.13672 10.7695 4.52344C10.6133 4.91016 10.5352 5.50195 10.5352 6.29883V9H9.7207V2.625ZM24.0059 2.46094C24.9863 2.46094 25.7988 2.81641 26.4434 3.52734C27.0293 4.17578 27.3223 4.94336 27.3223 5.83008C27.3223 6.7207 27.0117 7.5 26.3906 8.16797C25.7734 8.83203 24.9785 9.16406 24.0059 9.16406C23.0293 9.16406 22.2305 8.83203 21.6094 8.16797C20.9922 7.5 20.6836 6.7207 20.6836 5.83008C20.6836 4.94727 20.9766 4.18164 21.5625 3.5332C22.207 2.81836 23.0215 2.46094 24.0059 2.46094ZM24.0059 3.26367C23.3262 3.26367 22.7422 3.51562 22.2539 4.01953C21.7656 4.52344 21.5215 5.13281 21.5215 5.84766C21.5215 6.30859 21.6328 6.73828 21.8555 7.13672C22.0781 7.53516 22.3789 7.84375 22.7578 8.0625C23.1367 8.27734 23.5527 8.38477 24.0059 8.38477C24.459 8.38477 24.875 8.27734 25.2539 8.0625C25.6328 7.84375 25.9336 7.53516 26.1562 7.13672C26.3789 6.73828 26.4902 6.30859 26.4902 5.84766C26.4902 5.13281 26.2441 4.52344 25.752 4.01953C25.2637 3.51562 24.6816 3.26367 24.0059 3.26367ZM28.8516 2.625H29.6719V3.76758C30 3.33008 30.3633 3.00391 30.7617 2.78906C31.1602 2.57031 31.5938 2.46094 32.0625 2.46094C32.5391 2.46094 32.9609 2.58203 33.3281 2.82422C33.6992 3.06641 33.9727 3.39258 34.1484 3.80273C34.3242 4.21289 34.4121 4.85156 34.4121 5.71875V9H33.5977V5.95898C33.5977 5.22461 33.5664 4.73438 33.5039 4.48828C33.4062 4.06641 33.2227 3.75 32.9531 3.53906C32.6836 3.32422 32.332 3.2168 31.8984 3.2168C31.4023 3.2168 30.957 3.38086 30.5625 3.70898C30.1719 4.03711 29.9141 4.44336 29.7891 4.92773C29.7109 5.24414 29.6719 5.82227 29.6719 6.66211V9H28.8516V2.625ZM39.3809 3.32227L38.8535 3.86719C38.416 3.44141 37.9883 3.22852 37.5703 3.22852C37.3047 3.22852 37.0762 3.31641 36.8848 3.49219C36.6973 3.66797 36.6035 3.87305 36.6035 4.10742C36.6035 4.31445 36.6816 4.51172 36.8379 4.69922C36.9941 4.89062 37.3223 5.11523 37.8223 5.37305C38.4316 5.68945 38.8457 5.99414 39.0645 6.28711C39.2793 6.58398 39.3867 6.91797 39.3867 7.28906C39.3867 7.8125 39.2031 8.25586 38.8359 8.61914C38.4688 8.98242 38.0098 9.16406 37.459 9.16406C37.0918 9.16406 36.7402 9.08398 36.4043 8.92383C36.0723 8.76367 35.7969 8.54297 35.5781 8.26172L36.0938 7.67578C36.5117 8.14844 36.9551 8.38477 37.4238 8.38477C37.752 8.38477 38.0312 8.2793 38.2617 8.06836C38.4922 7.85742 38.6074 7.60938 38.6074 7.32422C38.6074 7.08984 38.5312 6.88086 38.3789 6.69727C38.2266 6.51758 37.8828 6.29102 37.3477 6.01758C36.7734 5.7207 36.3828 5.42773 36.1758 5.13867C35.9688 4.84961 35.8652 4.51953 35.8652 4.14844C35.8652 3.66406 36.0293 3.26172 36.3574 2.94141C36.6895 2.62109 37.1074 2.46094 37.6113 2.46094C38.1973 2.46094 38.7871 2.74805 39.3809 3.32227ZM40.8516 2.625H41.666V3.79688C41.9902 3.35156 42.3633 3.01758 42.7852 2.79492C43.207 2.57227 43.6777 2.46094 44.1973 2.46094C45.1035 2.46094 45.8789 2.78711 46.5234 3.43945C47.168 4.0918 47.4902 4.87695 47.4902 5.79492C47.4902 6.73242 47.1699 7.5293 46.5293 8.18555C45.8926 8.83789 45.123 9.16406 44.2207 9.16406C43.7129 9.16406 43.2461 9.05859 42.8203 8.84766C42.3945 8.63672 42.0098 8.32227 41.666 7.9043V11.332H40.8516V2.625ZM44.1328 3.25195C43.4219 3.25195 42.8223 3.5 42.334 3.99609C41.8496 4.49219 41.6074 5.10938 41.6074 5.84766C41.6074 6.33203 41.7148 6.76758 41.9297 7.1543C42.1484 7.54102 42.459 7.84766 42.8613 8.07422C43.2676 8.30078 43.6953 8.41406 44.1445 8.41406C44.5859 8.41406 45 8.30078 45.3867 8.07422C45.7773 7.84375 46.0879 7.52344 46.3184 7.11328C46.5488 6.70312 46.6641 6.27344 46.6641 5.82422C46.6641 5.37109 46.5488 4.94141 46.3184 4.53516C46.0918 4.12891 45.7852 3.81445 45.3984 3.5918C45.0117 3.36523 44.5898 3.25195 44.1328 3.25195ZM54.3984 6.88477L55.0898 7.24805C54.8633 7.69336 54.6016 8.05273 54.3047 8.32617C54.0078 8.59961 53.6738 8.80859 53.3027 8.95312C52.9316 9.09375 52.5117 9.16406 52.043 9.16406C51.0039 9.16406 50.1914 8.82422 49.6055 8.14453C49.0195 7.46094 48.7266 6.68945 48.7266 5.83008C48.7266 5.02148 48.9746 4.30078 49.4707 3.66797C50.0996 2.86328 50.9414 2.46094 51.9961 2.46094C53.082 2.46094 53.9492 2.87305 54.5977 3.69727C55.0586 4.2793 55.293 5.00586 55.3008 5.87695H49.5703C49.5859 6.61914 49.8223 7.22852 50.2793 7.70508C50.7363 8.17773 51.3008 8.41406 51.9727 8.41406C52.2969 8.41406 52.6113 8.35742 52.916 8.24414C53.2246 8.13086 53.4863 7.98047 53.7012 7.79297C53.916 7.60547 54.1484 7.30273 54.3984 6.88477ZM54.3984 5.16797C54.2891 4.73047 54.1289 4.38086 53.918 4.11914C53.7109 3.85742 53.4355 3.64648 53.0918 3.48633C52.748 3.32617 52.3867 3.24609 52.0078 3.24609C51.3828 3.24609 50.8457 3.44727 50.3965 3.84961C50.0684 4.14258 49.8203 4.58203 49.6523 5.16797H54.3984ZM63.1992 0.164062V9H62.3906V7.9043C62.0469 8.32227 61.6602 8.63672 61.2305 8.84766C60.8047 9.05859 60.3379 9.16406 59.8301 9.16406C58.9277 9.16406 58.1562 8.83789 57.5156 8.18555C56.8789 7.5293 56.5605 6.73242 56.5605 5.79492C56.5605 4.87695 56.8828 4.0918 57.5273 3.43945C58.1719 2.78711 58.9473 2.46094 59.8535 2.46094C60.377 2.46094 60.8496 2.57227 61.2715 2.79492C61.6973 3.01758 62.0703 3.35156 62.3906 3.79688V0.164062H63.1992ZM59.918 3.25195C59.4609 3.25195 59.0391 3.36523 58.6523 3.5918C58.2656 3.81445 57.957 4.12891 57.7266 4.53516C57.5 4.94141 57.3867 5.37109 57.3867 5.82422C57.3867 6.27344 57.502 6.70312 57.7324 7.11328C57.9629 7.52344 58.2715 7.84375 58.6582 8.07422C59.0488 8.30078 59.4668 8.41406 59.9121 8.41406C60.3613 8.41406 60.7871 8.30078 61.1895 8.07422C61.5918 7.84766 61.9004 7.54102 62.1152 7.1543C62.334 6.76758 62.4434 6.33203 62.4434 5.84766C62.4434 5.10938 62.1992 4.49219 61.7109 3.99609C61.2266 3.5 60.6289 3.25195 59.918 3.25195ZM65.3496 0C65.5371 0 65.6973 0.0664062 65.8301 0.199219C65.9629 0.332031 66.0293 0.492188 66.0293 0.679688C66.0293 0.863281 65.9629 1.02148 65.8301 1.1543C65.6973 1.28711 65.5371 1.35352 65.3496 1.35352C65.166 1.35352 65.0078 1.28711 64.875 1.1543C64.7422 1.02148 64.6758 0.863281 64.6758 0.679688C64.6758 0.492188 64.7422 0.332031 64.875 0.199219C65.0078 0.0664062 65.166 0 65.3496 0ZM64.9395 2.625H65.7656V9H64.9395V2.625ZM73.8164 2.625V9H73.0078V7.9043C72.6641 8.32227 72.2773 8.63672 71.8477 8.84766C71.4219 9.05859 70.9551 9.16406 70.4473 9.16406C69.5449 9.16406 68.7734 8.83789 68.1328 8.18555C67.4961 7.5293 67.1777 6.73242 67.1777 5.79492C67.1777 4.87695 67.5 4.0918 68.1445 3.43945C68.7891 2.78711 69.5645 2.46094 70.4707 2.46094C70.9941 2.46094 71.4668 2.57227 71.8887 2.79492C72.3145 3.01758 72.6875 3.35156 73.0078 3.79688V2.625H73.8164ZM70.5352 3.25195C70.0781 3.25195 69.6562 3.36523 69.2695 3.5918C68.8828 3.81445 68.5742 4.12891 68.3438 4.53516C68.1172 4.94141 68.0039 5.37109 68.0039 5.82422C68.0039 6.27344 68.1191 6.70312 68.3496 7.11328C68.5801 7.52344 68.8887 7.84375 69.2754 8.07422C69.666 8.30078 70.084 8.41406 70.5293 8.41406C70.9785 8.41406 71.4043 8.30078 71.8066 8.07422C72.209 7.84766 72.5176 7.54102 72.7324 7.1543C72.9512 6.76758 73.0605 6.33203 73.0605 5.84766C73.0605 5.10938 72.8164 4.49219 72.3281 3.99609C71.8438 3.5 71.2461 3.25195 70.5352 3.25195Z" fill="#40B54B"/>
</svg>
